<mxfile modified="2020-10-27T06:28:44.276Z" host="app.diagrams.net" agent="5.0 (X11)" etag="aMpJo3nkg3iBqKxT6CsP" version="13.8.3" type="github">
  <diagram id="f106602c-feb2-e66a-4537-3a34d633f6aa" name="Page-1">
    <mxGraphModel dx="796" dy="492" grid="1" gridSize="10" guides="1" tooltips="1" connect="1" arrows="1" fold="1" page="1" pageScale="1" pageWidth="1169" pageHeight="827" background="#ffffff" math="0" shadow="0">
      <root>
        <mxCell id="0" />
        <mxCell id="1" parent="0" />
        <mxCell id="4b3UzkyeqskLnX6JOp6j-1044" style="edgeStyle=none;rounded=0;orthogonalLoop=1;jettySize=auto;html=1;entryX=-0.01;entryY=0.431;entryDx=0;entryDy=0;entryPerimeter=0;" edge="1" parent="1" source="dStMWNxRlU4IX113jJQJ-1086" target="4b3UzkyeqskLnX6JOp6j-1043">
          <mxGeometry relative="1" as="geometry" />
        </mxCell>
        <mxCell id="dStMWNxRlU4IX113jJQJ-1086" value="" style="strokeColor=#dddddd;shadow=1;strokeWidth=1;rounded=1;absoluteArcSize=1;arcSize=2;" parent="1" vertex="1">
          <mxGeometry x="610" y="290" width="120" height="84" as="geometry" />
        </mxCell>
        <mxCell id="dStMWNxRlU4IX113jJQJ-1087" value="Python ETL" style="dashed=0;connectable=0;html=1;fillColor=#757575;strokeColor=none;shape=mxgraph.gcp2.frontend_platform_services;part=1;labelPosition=right;verticalLabelPosition=middle;align=left;verticalAlign=middle;spacingLeft=5;fontSize=12;" parent="dStMWNxRlU4IX113jJQJ-1086" vertex="1">
          <mxGeometry y="0.5" width="32" height="32" relative="1" as="geometry">
            <mxPoint x="5" y="-16" as="offset" />
          </mxGeometry>
        </mxCell>
        <mxCell id="R1kUYHf35iSLetamCmk0-1066" value="" style="shape=image;html=1;verticalAlign=top;verticalLabelPosition=bottom;labelBackgroundColor=#ffffff;imageAspect=0;aspect=fixed;image=https://cdn2.iconfinder.com/data/icons/well-known-1/1024/Python-128.png" parent="dStMWNxRlU4IX113jJQJ-1086" vertex="1">
          <mxGeometry x="84" y="51.92727272727273" width="22.603636363636365" height="22.603636363636365" as="geometry" />
        </mxCell>
        <mxCell id="4b3UzkyeqskLnX6JOp6j-1038" style="edgeStyle=none;rounded=0;orthogonalLoop=1;jettySize=auto;html=1;" edge="1" parent="1" source="4whg9rzmziN6gf8FuwX8-1042" target="4b3UzkyeqskLnX6JOp6j-1037">
          <mxGeometry relative="1" as="geometry" />
        </mxCell>
        <mxCell id="4whg9rzmziN6gf8FuwX8-1042" value="" style="outlineConnect=0;fontColor=#232F3E;gradientColor=#4D72F3;gradientDirection=north;fillColor=#3334B9;strokeColor=#ffffff;dashed=0;verticalLabelPosition=bottom;verticalAlign=top;align=center;html=1;fontSize=12;fontStyle=0;aspect=fixed;shape=mxgraph.aws4.resourceIcon;resIcon=mxgraph.aws4.documentdb_with_mongodb_compatibility;" parent="1" vertex="1">
          <mxGeometry x="160" y="160" width="78" height="78" as="geometry" />
        </mxCell>
        <mxCell id="4b3UzkyeqskLnX6JOp6j-1039" style="edgeStyle=none;rounded=0;orthogonalLoop=1;jettySize=auto;html=1;" edge="1" parent="1" source="4whg9rzmziN6gf8FuwX8-1043" target="4b3UzkyeqskLnX6JOp6j-1037">
          <mxGeometry relative="1" as="geometry">
            <mxPoint x="490" y="319" as="targetPoint" />
          </mxGeometry>
        </mxCell>
        <mxCell id="4whg9rzmziN6gf8FuwX8-1043" value="" style="outlineConnect=0;fontColor=#232F3E;gradientColor=#4D72F3;gradientDirection=north;fillColor=#3334B9;strokeColor=#ffffff;dashed=0;verticalLabelPosition=bottom;verticalAlign=top;align=center;html=1;fontSize=12;fontStyle=0;aspect=fixed;shape=mxgraph.aws4.resourceIcon;resIcon=mxgraph.aws4.documentdb_with_mongodb_compatibility;" parent="1" vertex="1">
          <mxGeometry x="160" y="280" width="78" height="78" as="geometry" />
        </mxCell>
        <mxCell id="4whg9rzmziN6gf8FuwX8-1046" value="OSS X" style="text;html=1;strokeColor=none;fillColor=none;align=center;verticalAlign=middle;whiteSpace=wrap;rounded=0;" parent="1" vertex="1">
          <mxGeometry x="179" y="238" width="40" height="20" as="geometry" />
        </mxCell>
        <mxCell id="4whg9rzmziN6gf8FuwX8-1047" value="OSS Y" style="text;html=1;strokeColor=none;fillColor=none;align=center;verticalAlign=middle;whiteSpace=wrap;rounded=0;" parent="1" vertex="1">
          <mxGeometry x="179" y="360" width="40" height="20" as="geometry" />
        </mxCell>
        <mxCell id="4b3UzkyeqskLnX6JOp6j-1042" style="edgeStyle=none;rounded=0;orthogonalLoop=1;jettySize=auto;html=1;entryX=0;entryY=0.75;entryDx=0;entryDy=0;" edge="1" parent="1" source="3dFaudVvByYtuBuP8Ixg-1055" target="dStMWNxRlU4IX113jJQJ-1086">
          <mxGeometry relative="1" as="geometry" />
        </mxCell>
        <mxCell id="3dFaudVvByYtuBuP8Ixg-1055" value="" style="outlineConnect=0;fontColor=#232F3E;gradientColor=#4D72F3;gradientDirection=north;fillColor=#3334B9;strokeColor=#ffffff;dashed=0;verticalLabelPosition=bottom;verticalAlign=top;align=center;html=1;fontSize=12;fontStyle=0;aspect=fixed;shape=mxgraph.aws4.resourceIcon;resIcon=mxgraph.aws4.documentdb_with_mongodb_compatibility;" parent="1" vertex="1">
          <mxGeometry x="160" y="414" width="78" height="78" as="geometry" />
        </mxCell>
        <mxCell id="3dFaudVvByYtuBuP8Ixg-1057" value="Remedy" style="text;html=1;strokeColor=none;fillColor=none;align=center;verticalAlign=middle;whiteSpace=wrap;rounded=0;" parent="1" vertex="1">
          <mxGeometry x="179" y="492" width="40" height="20" as="geometry" />
        </mxCell>
        <mxCell id="4b3UzkyeqskLnX6JOp6j-1040" style="edgeStyle=none;rounded=0;orthogonalLoop=1;jettySize=auto;html=1;entryX=0;entryY=0.409;entryDx=0;entryDy=0;entryPerimeter=0;" edge="1" parent="1" source="4b3UzkyeqskLnX6JOp6j-1037" target="dStMWNxRlU4IX113jJQJ-1086">
          <mxGeometry relative="1" as="geometry" />
        </mxCell>
        <mxCell id="4b3UzkyeqskLnX6JOp6j-1037" value="" style="outlineConnect=0;fontColor=#232F3E;gradientColor=none;fillColor=#116D5B;strokeColor=none;dashed=0;verticalLabelPosition=bottom;verticalAlign=top;align=center;html=1;fontSize=12;fontStyle=0;aspect=fixed;shape=mxgraph.aws4.transfer_for_ftp_resource;" vertex="1" parent="1">
          <mxGeometry x="490" y="238" width="76" height="78" as="geometry" />
        </mxCell>
        <mxCell id="4b3UzkyeqskLnX6JOp6j-1043" value="" style="dashed=0;outlineConnect=0;html=1;align=center;labelPosition=center;verticalLabelPosition=bottom;verticalAlign=top;shape=mxgraph.webicons.mongodb;gradientColor=#DFDEDE" vertex="1" parent="1">
          <mxGeometry x="820" y="295.6" width="102.4" height="84.4" as="geometry" />
        </mxCell>
        <mxCell id="4b3UzkyeqskLnX6JOp6j-1046" value="WEB API (SOAP) " style="text;html=1;strokeColor=none;fillColor=none;align=center;verticalAlign=middle;whiteSpace=wrap;rounded=0;" vertex="1" parent="1">
          <mxGeometry x="400" y="404" width="100" height="20" as="geometry" />
        </mxCell>
        <mxCell id="4b3UzkyeqskLnX6JOp6j-1047" value="mongodb" style="text;html=1;strokeColor=none;fillColor=none;align=center;verticalAlign=middle;whiteSpace=wrap;rounded=0;" vertex="1" parent="1">
          <mxGeometry x="851.2" y="384" width="40" height="20" as="geometry" />
        </mxCell>
      </root>
    </mxGraphModel>
  </diagram>
</mxfile>
